<svg xmlns="http://www.w3.org/2000/svg" viewBox="0 0 176 85" role="presentation" height="24" width="48"><path fill="currentColor" d="M169.327 78.331a23.873 23.873 0 01-16.88 6.993c-.1 0-.198-.007-.297-.008l-6.276.008c-.686-7.946-8.883-14.71-20.483-17.849a20.714 20.714 0 10-29.124 0 36.074 36.074 0 00-14.983 7.692 35.382 35.382 0 00-8.693-3.562 17.664 17.664 0 10-24.836 0c-9.153 2.475-15.826 7.6-17.237 13.719h-6.277c-.097-.007-.195 0-.295 0a23.874 23.874 0 118.876-46.034A23.872 23.872 0 0154.597 25.2c.584 0 1.16.028 1.732.069a31.093 31.093 0 0157.204-10.175 25.35 25.35 0 0132.7 23.306 23.875 23.875 0 0123.094 39.931z"/></svg>